<?xml version="1.0" encoding="UTF-8"?>
<svg id="Layer_2" data-name="Layer 2" xmlns="http://www.w3.org/2000/svg" viewBox="0 0 321.21 251.73">
  <defs>
    <style>
      .cls-1 {
        fill: none;
        stroke: #29abe2;
        stroke-miterlimit: 10;
        stroke-width: 5px;
      }

      .cls-2 {
        fill: #29abe2;
      }
    </style>
  </defs>
  <g id="Layer_1-2" data-name="Layer 1">
    <g>
      <g>
        <path class="cls-1" d="M318.71,29.18v136.16c0,14.73-10.3,26.68-23.01,26.68h-6.06v30l-78.52-30H25.51c-12.71,0-23.01-11.94-23.01-26.68V29.18C2.5,14.44,12.8,2.5,25.51,2.5h270.19c12.71,0,23.01,11.94,23.01,26.68Z"/>
        <g>
          <polygon class="cls-2" points="42.13 84.12 49.11 105.6 71.69 105.6 53.42 118.87 60.4 140.34 42.13 127.07 23.86 140.34 30.84 118.87 12.57 105.6 35.15 105.6 42.13 84.12"/>
          <polygon class="cls-2" points="278.51 84.12 285.48 105.6 308.06 105.6 289.8 118.87 296.77 140.34 278.51 127.07 260.24 140.34 267.21 118.87 248.95 105.6 271.53 105.6 278.51 84.12"/>
          <polygon class="cls-2" points="219.41 66.12 226.39 87.6 248.97 87.6 230.7 100.87 237.68 122.34 219.41 109.07 201.14 122.34 208.12 100.87 189.85 87.6 212.43 87.6 219.41 66.12"/>
          <polygon class="cls-2" points="101.22 66.12 108.2 87.6 130.78 87.6 112.51 100.87 119.49 122.34 101.22 109.07 82.96 122.34 89.93 100.87 71.67 87.6 94.25 87.6 101.22 66.12"/>
          <polygon class="cls-2" points="160.32 27.04 172.05 63.15 210.03 63.15 179.31 85.48 191.04 121.59 160.32 99.27 129.59 121.59 141.33 85.48 110.6 63.15 148.58 63.15 160.32 27.04"/>
        </g>
      </g>
      <g>
        <path class="cls-2" d="M29.38,233.03H6.51v15.04h25.14l-.51,2.94H3.32v-36.78h27.25v2.94H6.51v12.93h22.87v2.94Z"/>
        <path class="cls-2" d="M37,248.64l27.51-31.47h-26.22v-2.94h30.65v2.42l-27.41,31.42h28.44l-.62,2.94h-32.35v-2.37Z"/>
        <path class="cls-2" d="M79.66,234.26v16.74h-3.19v-36.78h16.23c7.06,0,12.21,3.09,12.21,9.74,0,4.28-1.96,7.57-6.9,8.76,2.88.72,5.92,2.78,5.92,9.12v1.49c0,2.99,0,6.23.41,7.68h-3.3c-.51-1.6-.36-4.74-.36-7.37v-1.24c0-6.34-2.47-8.14-9.53-8.14h-11.49ZM79.66,231.33h12.11c6.49,0,9.79-2.27,9.79-7.31,0-4.58-3.3-6.8-9.53-6.8h-12.36v14.11Z"/>
        <path class="cls-2" d="M113.96,238.75c.31,5.98,4.22,10.25,10.25,10.25,4.53,0,7.16-2.01,8.81-5.05h3.04c-1.34,3.45-4.84,7.78-12.21,7.78-8.5,0-12.93-6.59-12.93-13.5,0-8.09,5.36-13.7,12.78-13.7,9.63,0,12.78,7.31,12.78,13.34v.88h-22.51ZM133.18,236.17c-.26-3.66-2.16-8.96-9.53-8.96-5.87,0-9.02,3.81-9.58,8.96h19.11Z"/>
        <path class="cls-2" d="M142.86,225.25c1.7,3.71,9.22,20.19,10.2,22.72h.05c.57-1.65,2.27-5.62,9.94-22.72h3.14l-11.64,25.76h-3.19l-11.8-25.76h3.3Z"/>
        <path class="cls-2" d="M171.81,217.52v-5.46h2.99v5.46h-2.99ZM171.81,225.25h2.99v25.76h-2.99v-25.76Z"/>
        <path class="cls-2" d="M184.74,238.75c.31,5.98,4.22,10.25,10.25,10.25,4.53,0,7.16-2.01,8.81-5.05h3.04c-1.34,3.45-4.84,7.78-12.21,7.78-8.5,0-12.93-6.59-12.93-13.5,0-8.09,5.36-13.7,12.78-13.7,9.63,0,12.78,7.31,12.78,13.34v.88h-22.51ZM203.95,236.17c-.26-3.66-2.16-8.96-9.53-8.96-5.87,0-9.01,3.81-9.58,8.96h19.11Z"/>
        <path class="cls-2" d="M214.1,225.25c5.56,16.28,6.75,19.73,7.47,22.56h.05c.67-2.37,1.91-5.72,8.19-22.56h2.94c6.08,16.23,7.57,20.25,8.04,22.2h.05c.62-2.42,2.68-8.5,7.62-22.2h3.04l-9.38,25.76h-2.94c-3.35-9.07-7.16-19.47-8.04-22.25h-.05c-.67,2.27-3.76,10.92-8.04,22.25h-3.19l-8.91-25.76h3.14Z"/>
        <path class="cls-2" d="M257.67,243.28c1.08,3.71,4.17,5.82,9.53,5.82,5.77,0,7.93-2.11,7.93-5,0-2.58-1.39-4.43-8.71-5.25-8.65-.98-10.51-3.92-10.51-7.16,0-2.99,2.47-7.16,10.35-7.16,8.81,0,10.92,4.74,11.13,7.52h-3.09c-.41-1.75-1.54-4.89-8.29-4.89-5.72,0-7.01,2.52-7.01,4.33,0,2.37,1.44,3.81,7.93,4.64,9.27,1.13,11.28,3.86,11.28,7.83,0,4.58-3.5,7.78-11.23,7.78s-11.49-3.3-12.42-8.45h3.09Z"/>
      </g>
    </g>
  </g>
</svg>