<?xml version="1.0" encoding="UTF-8"?>
<svg id="Layer_2" data-name="Layer 2" xmlns="http://www.w3.org/2000/svg" viewBox="0 0 667.37 153.57">
  <defs>
    <style>
      .cls-1 {
        fill: #00629d;
      }
    </style>
  </defs>
  <g id="Layer_1-2" data-name="Layer 1">
    <g>
      <path class="cls-1" d="M140.71,131.93c-1.34-1.6-3.43-1.96-5.17-1.69-1.69.27-3.29,1.02-5.03,2.27l-.22.18-.22.22c-5.08,5.17-15.63,9.22-25.51,9.71-9.88.49-18.43-2.32-21.51-8.37-.76-1.51-.8-2.45-.49-3.56.31-1.11,1.16-2.54,2.63-4.1,2.98-3.16,8.24-6.81,13.98-11.09.18-.13.31-.27.45-.4h0c11.89-8.37,19.59-22.17,19.59-38.65,0-12.56-4.5-23.6-11.89-31.79-5.88-7.7-16.96-21.91-24.09-29.34l-.04-.04-.04-.04C72.58,4.72,59.45.09,45.87,0h0C32.29-.09,18.3,4.41,6.15,12.16l-.13.09-.13.09c-1.51,1.16-2.63,2.45-3.25,4.01-.62,1.56-.67,3.74.67,5.34s3.43,1.96,5.12,1.69c1.69-.27,3.29-1.02,5.03-2.27l.22-.18.22-.22c5.08-5.17,15.63-9.22,25.51-9.71,9.88-.49,18.43,2.32,21.51,8.37.76,1.51.8,2.45.49,3.56s-1.16,2.54-2.63,4.1c-1.96,2.09-4.9,4.36-8.28,6.9-15.5,7.48-26.09,23.15-26.09,42.43,0,10.02,2.85,19.1,7.79,26.49.09.27.27.53.45.8,0,0,18.03,24.13,28.14,34.64l.04.04c21.06,20.97,52.67,18.61,77.03,3.07l.13-.09.13-.09c1.51-1.16,2.63-2.45,3.25-4.01.62-1.51.71-3.7-.67-5.3h0ZM59.76,8.91c6.77,2.09,13.14,5.57,18.66,11.04,2.89,3.03,6.68,7.48,10.51,12.2-5.3-1.96-11.04-3.03-17.05-3.03-2.14,0-4.23.13-6.28.4,1.07-1.47,1.96-3.03,2.4-4.81.71-2.67.4-5.7-.98-8.42-1.65-3.29-4.32-5.57-7.26-7.39h0ZM33.71,76.36c0-22.4,16.16-39.23,38.16-39.23s38.16,16.83,38.16,39.23-16.16,39.27-38.16,39.27-38.16-16.83-38.16-39.27h0ZM65.68,133.63c-3.12-3.21-7.21-8.1-11.27-13.14,5.39,2.05,11.31,3.16,17.45,3.16,2.54,0,4.99-.18,7.39-.53-1.42,1.74-2.58,3.61-3.16,5.74-.71,2.67-.4,5.7.98,8.42,1.65,3.25,4.32,5.52,7.26,7.39-6.72-2.09-13.14-5.57-18.66-11.04Z"/>
      <g>
        <path class="cls-1" d="M0,120.49V33.12h8.26v87.37H0Z"/>
        <path class="cls-1" d="M134.64,120.49V33.12h8.26v79.71h36.86v7.66h-45.12Z"/>
      </g>
      <g>
        <path d="M264.17,120.49l-36.5-41.41v41.41h-8.26V33.12h24.41c15.56,0,27.41,10.17,27.41,24.89s-12.57,25.01-27.17,25.01h-2.28l33.15,37.46h-10.77,0ZM242.87,40.78h-15.2v35.31h14.36c11.61,0,20.58-6.35,20.58-18.31,0-9.93-8.26-17-19.75-17h0Z"/>
        <path d="M287.63,96.32c.24,10.41,6.58,18.43,17.35,18.43,7.3,0,12.21-2.63,16.64-6.7l5.03,4.91c-4.55,4.67-11.49,8.98-21.9,8.98-15.56,0-25.01-11.37-25.01-26.45,0-13.4,9.33-25.25,24.41-25.25s23.22,12.09,23.46,26.09h-39.97,0ZM303.79,77.29c-9.1,0-14.48,5.62-15.8,12.81h30.88c-1.2-6.58-6.35-12.81-15.08-12.81Z"/>
        <path d="M348.43,78.84v41.65h-7.78v-41.65h-7.9v-7.18h7.9v-27.77c0-7.54,5.27-10.89,11.13-10.89.96,0,3.83,0,4.91.12v7.06s-2.87-.24-3.59-.12c-2.75.12-4.67,1.55-4.67,6.22v25.37h8.38v7.18h-8.38Z"/>
        <path d="M370.92,96.32c.24,10.41,6.58,18.43,17.35,18.43,7.3,0,12.21-2.63,16.64-6.7l5.03,4.91c-4.55,4.67-11.49,8.98-21.9,8.98-15.56,0-25.01-11.37-25.01-26.45,0-13.4,9.33-25.25,24.41-25.25s23.22,12.09,23.46,26.09h-39.97,0ZM387.08,77.29c-9.1,0-14.48,5.62-15.8,12.81h30.88c-1.2-6.58-6.35-12.81-15.08-12.81Z"/>
        <path d="M448.6,80.28c-2.28-1.91-4.55-2.75-7.06-2.75-6.35,0-11.61,7.18-11.61,15.56v27.41h-7.78v-48.83h7.78v6.7c2.75-4.79,7.3-8.14,12.93-8.14,3.95,0,6.7,1.08,9.69,3.71l-3.95,6.35h0Z"/>
        <path d="M463.68,96.32c.24,10.41,6.58,18.43,17.35,18.43,7.3,0,12.21-2.63,16.64-6.7l5.03,4.91c-4.55,4.67-11.49,8.98-21.9,8.98-15.56,0-25.02-11.37-25.02-26.45,0-13.4,9.33-25.25,24.41-25.25s23.22,12.09,23.46,26.09h-39.97,0ZM479.84,77.29c-9.1,0-14.48,5.62-15.8,12.81h30.88c-1.2-6.58-6.35-12.81-15.08-12.81Z"/>
        <path d="M548.17,120.49v-31.12c0-6.94-3.95-11.97-11.49-11.97-9.1,0-14,8.02-14,14.84v28.24h-7.78v-48.83h7.78v7.06c2.99-5.27,8.74-8.5,15.2-8.5,11.01,0,18.07,7.06,18.07,17.83v32.43h-7.78Z"/>
        <path d="M591.38,121.93c-15.2,0-24.77-11.49-24.77-25.97s10.17-25.73,24.17-25.73c11.13,0,17.35,5.62,20.95,10.29l-5.86,4.55c-3.23-4.19-7.78-7.54-14.6-7.54-10.05,0-16.64,8.62-16.64,18.07,0,11.13,6.94,19.15,16.51,19.15,6.94,0,11.85-3.47,15.92-8.98l5.62,4.19c-4.55,6.58-12.09,11.97-21.3,11.97h0Z"/>
        <path d="M627.4,96.32c.24,10.41,6.58,18.43,17.35,18.43,7.3,0,12.21-2.63,16.64-6.7l5.03,4.91c-4.55,4.67-11.49,8.98-21.9,8.98-15.56,0-25.02-11.37-25.02-26.45,0-13.4,9.33-25.25,24.41-25.25s23.22,12.09,23.46,26.09h-39.97,0ZM643.56,77.29c-9.1,0-14.48,5.62-15.8,12.81h30.88c-1.2-6.58-6.35-12.81-15.08-12.81Z"/>
      </g>
    </g>
  </g>
</svg>