<?xml version="1.0" encoding="UTF-8"?>
<svg id="Layer_2" data-name="Layer 2" xmlns="http://www.w3.org/2000/svg" viewBox="0 0 393.49 273.56">
  <defs>
    <style>
      .cls-1 {
        fill: #9ca2a2;
      }

      .cls-2 {
        fill: #dcdedd;
      }

      .cls-3 {
        fill: #01989b;
      }
    </style>
  </defs>
  <g id="Layer_1-2" data-name="Layer 1">
    <g>
      <path class="cls-2" d="M317.41,0l-17.36,98.08h-9.28L308.14,0h9.28Z"/>
      <path class="cls-2" d="M335.57,25.71l13.65,61.37,34.6-61.37h9.67l-61.63,106.43h-9.81l20.15-34.59-16.97-71.84h10.34Z"/>
    </g>
    <g>
      <path class="cls-3" d="M0,4.24h16.57l31.81,73.56h.26L80.72,4.24h16.17v93.84h-11.13V19.35h-.26l-33.67,78.73h-6.76L11.4,19.35h-.27v78.73H0V4.24Z"/>
      <path class="cls-3" d="M120.22,4.24h58.98v10.34h-47.85v29.42h44.67v10.34h-44.67v33.4h50.24v10.34h-61.37V4.24Z"/>
      <path class="cls-3" d="M197.09,4.24h36.05c3.09,0,6.36.35,9.81,1.06,3.45.71,6.87,1.83,10.27,3.38,3.4,1.55,6.67,3.56,9.81,6.03,3.14,2.48,5.9,5.46,8.28,8.95,2.39,3.49,4.28,7.51,5.7,12.06,1.41,4.55,2.12,9.7,2.12,15.44s-.71,10.89-2.12,15.44c-1.42,4.55-3.31,8.57-5.7,12.06-2.38,3.49-5.15,6.48-8.28,8.95-3.14,2.48-6.41,4.49-9.81,6.03-3.4,1.55-6.83,2.67-10.27,3.38-3.44.71-6.72,1.06-9.81,1.06h-36.05V4.24ZM208.23,87.75h21.21c5.39,0,10.38-.71,14.98-2.12,4.59-1.41,8.57-3.6,11.93-6.56,3.36-2.96,6.01-6.74,7.95-11.33s2.92-10.12,2.92-16.57-.97-11.97-2.92-16.57c-1.94-4.59-4.6-8.37-7.95-11.33-3.36-2.96-7.34-5.15-11.93-6.56-4.6-1.41-9.59-2.12-14.98-2.12h-21.21v73.16Z"/>
    </g>
    <g>
      <path class="cls-3" d="M17.69,198.54c-5.52-3.09-9.85-7.49-12.99-13.19-3.14-5.7-4.71-12.3-4.71-19.82s1.61-13.98,4.84-19.68c3.22-5.7,7.62-10.07,13.19-13.12s11.8-4.57,18.69-4.57,13.12,1.53,18.69,4.57c5.57,3.05,9.96,7.4,13.19,13.06,3.23,5.66,4.84,12.24,4.84,19.75s-1.66,14.12-4.97,19.82c-3.31,5.7-7.8,10.1-13.45,13.19-5.66,3.1-11.93,4.64-18.82,4.64s-12.97-1.55-18.49-4.64ZM48.38,189.53c3.8-2.03,6.87-5.08,9.21-9.15,2.34-4.06,3.51-9.01,3.51-14.85s-1.15-10.78-3.45-14.85c-2.3-4.06-5.3-7.09-9.01-9.08-3.71-1.99-7.73-2.98-12.06-2.98s-8.46.99-12.13,2.98c-3.67,1.99-6.61,5.02-8.81,9.08-2.21,4.07-3.31,9.01-3.31,14.85s1.08,10.92,3.25,14.98c2.16,4.07,5.06,7.09,8.68,9.08,3.62,1.99,7.6,2.98,11.93,2.98s8.39-1.02,12.2-3.05Z"/>
      <path class="cls-3" d="M146.2,136.05c5.48,5.35,8.22,13.06,8.22,23.13v42.81h-11.93v-41.09c0-7.25-1.81-12.79-5.43-16.64-3.63-3.84-8.57-5.76-14.85-5.76s-11.42,1.99-15.18,5.97c-3.76,3.97-5.63,9.76-5.63,17.36v40.16h-12.06v-72.63h12.06v10.34c2.39-3.71,5.63-6.58,9.74-8.62,4.11-2.03,8.64-3.05,13.59-3.05,8.84,0,15.99,2.67,21.47,8.02Z"/>
      <path class="cls-3" d="M240.04,170.18h-58.05c.44,7.16,2.89,12.75,7.35,16.77s9.88,6.03,16.24,6.03c5.21,0,9.56-1.21,13.06-3.65,3.49-2.43,5.94-5.68,7.35-9.74h12.99c-1.95,6.98-5.83,12.66-11.67,17.03-5.83,4.38-13.08,6.56-21.74,6.56-6.89,0-13.06-1.55-18.49-4.64-5.43-3.09-9.7-7.49-12.79-13.19-3.1-5.7-4.64-12.3-4.64-19.82s1.5-14.09,4.51-19.75c3-5.65,7.22-10.01,12.66-13.06,5.44-3.05,11.69-4.57,18.76-4.57s12.99,1.5,18.29,4.51,9.39,7.14,12.26,12.39c2.87,5.26,4.31,11.2,4.31,17.83,0,2.3-.13,4.73-.4,7.29ZM224.93,148.51c-2.03-3.31-4.79-5.83-8.28-7.56-3.49-1.72-7.36-2.59-11.6-2.59-6.1,0-11.29,1.95-15.57,5.83-4.29,3.89-6.74,9.28-7.36,16.17h45.86c0-4.59-1.02-8.55-3.05-11.86Z"/>
    </g>
    <g>
      <path class="cls-1" d="M9.13,262.55l-3.46,10.47H1.23l11.3-33.28h5.18l11.36,33.28h-4.59l-3.55-10.47h-11.8ZM20.04,259.19l-3.26-9.58c-.74-2.17-1.23-4.15-1.73-6.07h-.1c-.49,1.98-1.04,4-1.68,6.02l-3.26,9.63h10.02Z"/>
      <path class="cls-1" d="M38.25,239.74v33.28h-4.3v-33.28h4.3Z"/>
      <path class="cls-1" d="M56.21,240.19c2.17-.44,5.28-.69,8.25-.69,4.59,0,7.55.84,9.63,2.71,1.68,1.48,2.62,3.75,2.62,6.32,0,4.39-2.76,7.31-6.27,8.49v.15c2.57.89,4.1,3.26,4.89,6.71,1.09,4.64,1.88,7.85,2.57,9.13h-4.44c-.54-.94-1.28-3.8-2.22-7.95-.99-4.59-2.77-6.32-6.67-6.47h-4.05v14.42h-4.3v-32.83ZM60.51,255.34h4.39c4.59,0,7.5-2.52,7.5-6.32,0-4.3-3.11-6.17-7.65-6.22-2.07,0-3.55.2-4.25.39v12.15Z"/>
      <path class="cls-1" d="M85.23,261.86c.1,5.88,3.85,8.29,8.2,8.29,3.11,0,4.99-.54,6.62-1.23l.74,3.11c-1.53.69-4.15,1.48-7.95,1.48-7.36,0-11.75-4.84-11.75-12.05s4.25-12.89,11.21-12.89c7.8,0,9.87,6.86,9.87,11.26,0,.89-.1,1.58-.15,2.02h-16.79ZM97.97,258.75c.05-2.77-1.14-7.06-6.02-7.06-4.39,0-6.32,4.05-6.67,7.06h12.69Z"/>
      <path class="cls-1" d="M107.98,273.02v-20.59h-3.36v-3.31h3.36v-1.14c0-3.36.74-6.42,2.76-8.34,1.63-1.58,3.8-2.22,5.83-2.22,1.53,0,2.86.35,3.7.69l-.59,3.36c-.64-.3-1.53-.54-2.77-.54-3.7,0-4.64,3.26-4.64,6.91v1.28h5.78v3.31h-5.78v20.59h-4.3Z"/>
      <path class="cls-1" d="M121.95,256.58c0-2.81-.05-5.23-.2-7.45h3.8l.15,4.69h.2c1.09-3.21,3.7-5.23,6.62-5.23.49,0,.84.05,1.23.15v4.1c-.44-.1-.89-.15-1.48-.15-3.06,0-5.23,2.32-5.83,5.58-.1.59-.2,1.28-.2,2.02v12.74h-4.3v-16.44Z"/>
      <path class="cls-1" d="M151.07,273.02l-.35-3.01h-.15c-1.33,1.88-3.9,3.55-7.31,3.55-4.84,0-7.31-3.41-7.31-6.86,0-5.78,5.13-8.94,14.37-8.89v-.49c0-1.98-.54-5.53-5.43-5.53-2.22,0-4.54.69-6.22,1.78l-.99-2.86c1.98-1.28,4.84-2.12,7.85-2.12,7.31,0,9.08,4.99,9.08,9.78v8.94c0,2.07.1,4.1.4,5.73h-3.95ZM150.43,260.82c-4.74-.1-10.12.74-10.12,5.38,0,2.81,1.88,4.15,4.1,4.15,3.11,0,5.08-1.97,5.78-4,.15-.44.25-.94.25-1.38v-4.15Z"/>
      <path class="cls-1" d="M178.66,272.13c-1.14.59-3.65,1.38-6.86,1.38-7.21,0-11.9-4.89-11.9-12.19s5.04-12.69,12.84-12.69c2.57,0,4.84.64,6.02,1.23l-.99,3.36c-1.04-.59-2.67-1.14-5.04-1.14-5.48,0-8.44,4.05-8.44,9.03,0,5.53,3.55,8.94,8.29,8.94,2.47,0,4.1-.64,5.33-1.18l.74,3.26Z"/>
      <path class="cls-1" d="M189.62,242.26v6.86h6.22v3.31h-6.22v12.88c0,2.96.84,4.64,3.26,4.64,1.14,0,1.98-.15,2.52-.3l.2,3.26c-.84.35-2.17.59-3.85.59-2.02,0-3.65-.64-4.69-1.83-1.23-1.28-1.68-3.41-1.68-6.22v-13.03h-3.7v-3.31h3.7v-5.73l4.25-1.14Z"/>
      <path class="cls-1" d="M205.56,242.41c.05,1.48-1.04,2.67-2.76,2.67-1.53,0-2.62-1.18-2.62-2.67s1.14-2.72,2.72-2.72,2.67,1.18,2.67,2.72ZM200.72,273.02v-23.89h4.34v23.89h-4.34Z"/>
      <path class="cls-1" d="M213.94,249.12l4.69,13.43c.79,2.17,1.43,4.15,1.93,6.12h.15c.54-1.98,1.23-3.95,2.02-6.12l4.64-13.43h4.54l-9.38,23.89h-4.15l-9.08-23.89h4.64Z"/>
      <path class="cls-1" d="M237.93,261.86c.1,5.88,3.85,8.29,8.2,8.29,3.11,0,4.99-.54,6.62-1.23l.74,3.11c-1.53.69-4.15,1.48-7.95,1.48-7.36,0-11.75-4.84-11.75-12.05s4.25-12.89,11.21-12.89c7.8,0,9.87,6.86,9.87,11.26,0,.89-.1,1.58-.15,2.02h-16.79ZM250.67,258.75c.05-2.77-1.14-7.06-6.02-7.06-4.39,0-6.32,4.05-6.67,7.06h12.69Z"/>
      <path class="cls-1" d="M294.1,271.93c-1.58.79-4.74,1.58-8.79,1.58-9.38,0-16.44-5.92-16.44-16.83s7.06-17.48,17.38-17.48c4.15,0,6.76.89,7.9,1.48l-1.04,3.5c-1.63-.79-3.95-1.38-6.71-1.38-7.8,0-12.98,4.99-12.98,13.72,0,8.15,4.69,13.38,12.79,13.38,2.62,0,5.28-.54,7.01-1.38l.89,3.41Z"/>
      <path class="cls-1" d="M320.4,260.87c0,8.84-6.12,12.69-11.9,12.69-6.47,0-11.45-4.74-11.45-12.29,0-8,5.23-12.69,11.85-12.69s11.5,4.99,11.5,12.29ZM301.45,261.12c0,5.23,3.01,9.18,7.26,9.18s7.26-3.9,7.26-9.28c0-4.05-2.02-9.18-7.16-9.18s-7.36,4.74-7.36,9.28Z"/>
      <path class="cls-1" d="M339.11,273.02l-.35-3.01h-.15c-1.33,1.88-3.9,3.55-7.31,3.55-4.84,0-7.31-3.41-7.31-6.86,0-5.78,5.13-8.94,14.37-8.89v-.49c0-1.98-.54-5.53-5.43-5.53-2.22,0-4.54.69-6.22,1.78l-.99-2.86c1.98-1.28,4.84-2.12,7.85-2.12,7.31,0,9.08,4.99,9.08,9.78v8.94c0,2.07.1,4.1.4,5.73h-3.95ZM338.46,260.82c-4.74-.1-10.12.74-10.12,5.38,0,2.81,1.88,4.15,4.1,4.15,3.11,0,5.08-1.97,5.78-4,.15-.44.25-.94.25-1.38v-4.15Z"/>
      <path class="cls-1" d="M366.7,272.13c-1.14.59-3.65,1.38-6.86,1.38-7.21,0-11.9-4.89-11.9-12.19s5.04-12.69,12.84-12.69c2.57,0,4.84.64,6.02,1.23l-.99,3.36c-1.04-.59-2.67-1.14-5.04-1.14-5.48,0-8.44,4.05-8.44,9.03,0,5.53,3.55,8.94,8.29,8.94,2.47,0,4.1-.64,5.33-1.18l.74,3.26Z"/>
      <path class="cls-1" d="M371.77,237.96h4.34v14.91h.1c.69-1.23,1.78-2.32,3.11-3.06,1.28-.74,2.81-1.23,4.44-1.23,3.21,0,8.34,1.98,8.34,10.22v14.22h-4.35v-13.73c0-3.85-1.43-7.11-5.53-7.11-2.81,0-5.04,1.98-5.83,4.34-.25.59-.3,1.23-.3,2.07v14.42h-4.34v-35.05Z"/>
    </g>
  </g>
</svg>