<?xml version="1.0" encoding="UTF-8"?>
<svg id="Layer_2" data-name="Layer 2" xmlns="http://www.w3.org/2000/svg" viewBox="0 0 689.16 167.24">
  <defs>
    <style>
      .cls-1 {
        fill: #f4f4f4;
      }
    </style>
  </defs>
  <g id="Layer_1-2" data-name="Layer 1">
    <g>
      <g>
        <path class="cls-1" d="M2.8,104.43h45.82v8.68H12.16v15.74l25.92.04v8.42H12.16v28.75H2.8v-61.64Z"/>
        <path class="cls-1" d="M55.19,135.26c0-17.83,13.96-31.97,32.57-31.97s32.63,14.14,32.63,31.97-13.96,31.98-32.63,31.98-32.57-14.21-32.57-31.98ZM111,135.28c0-13.13-10.11-23.09-23.26-23.09s-23.2,9.96-23.2,23.09,10.11,23.03,23.2,23.03,23.26-9.96,23.26-23.03Z"/>
        <path class="cls-1" d="M133.45,136.45v-32.02h9.46v32.02c0,13.8,5.84,21.49,18.69,21.49s18.69-7.69,18.69-21.44v-32.07h9.56v32.07c0,18.8-9.64,30.3-28.25,30.3s-28.15-11.39-28.15-30.35Z"/>
        <path class="cls-1" d="M206.39,104.44h9.38l37.54,47.89v-47.9h9.36v61.64h-9.33l-37.53-47.79v47.79h-9.41v-61.63Z"/>
        <path class="cls-1" d="M280.37,104.43l20.68-.07c22.02-.08,34.99,13.31,34.99,30.99s-12.98,30.72-34.99,30.72h-20.68v-61.64ZM301.02,157.4c17.44-.04,25.62-9.09,25.62-22.03s-8.18-22.26-25.62-22.35l-11.29-.04v44.44l11.29-.02Z"/>
        <path class="cls-1" d="M372.8,101.97l34.19,64.14h-10.12l-7.05-13.55h-34.27l-7.14,13.55h-10.33l34.72-64.15ZM385.62,144.62l-12.92-24.76-12.98,24.76h25.9Z"/>
        <path class="cls-1" d="M423.47,113.13h-21.27l-.05-8.7h51.85v8.7h-21.23v52.94h-9.3v-52.94Z"/>
        <path class="cls-1" d="M465.03,104.43h9.41v61.64h-9.41v-61.64Z"/>
        <path class="cls-1" d="M488.61,135.26c0-17.83,13.96-31.97,32.57-31.97s32.63,14.14,32.63,31.97-13.96,31.98-32.63,31.98-32.57-14.21-32.57-31.98ZM544.42,135.28c0-13.13-10.11-23.09-23.26-23.09s-23.2,9.96-23.2,23.09,10.11,23.03,23.2,23.03,23.26-9.96,23.26-23.03Z"/>
        <path class="cls-1" d="M568.01,104.44h9.38l37.54,47.89v-47.9h9.36v61.64h-9.33l-37.53-47.79v47.79h-9.41v-61.63Z"/>
        <path class="cls-1" d="M664.67,166.81c-9.89.03-20.15-2.79-27.24-7.32l5.07-7.42c6.5,3.95,14.81,6.17,22.57,6.11,8.5-.07,14.25-3.34,14.37-8.96.12-5.17-3.31-7.09-12.24-9.17l-8.04-1.86c-13.03-2.99-19.05-8.49-19.1-17.56-.05-10.01,9.9-16.84,23.32-16.92,8.85-.05,17.45,2.66,23.74,6.6l-4.78,7.4c-5.37-3.33-11.53-5.43-18.1-5.38-8.38.08-14.2,3.09-14.15,8.57.05,4.76,3.81,7.12,11.81,8.97l8.58,1.96c12.94,2.95,18.61,7.96,18.66,17.36.05,10.46-9.95,17.57-24.49,17.62h0Z"/>
      </g>
      <g>
        <path class="cls-1" d="M32.89,49.26c5.18-1.23,9.47-3.59,12.77-7.03,3.75-3.89,5.66-8.63,5.66-14.04,0-6.95-3.03-12.6-9-16.82-5.31-3.73-13.98-5.61-25.72-5.61H0v74.86h15.45v-29.71h.74l25.02,29.71h19.16l-27.48-31.35ZM15.45,39.1v-20.78h3.59c11.54,0,17.13,3.28,17.13,10.02,0,7.23-5.76,10.76-17.64,10.76h-3.07Z"/>
        <polygon class="cls-1" points="90.04 18.32 90.04 33.5 124.12 33.5 124.12 46.07 90.04 46.07 90.04 68.07 125.14 68.07 125.14 80.61 74.57 80.61 74.57 5.76 125.14 5.76 125.14 18.32 90.04 18.32"/>
        <polygon class="cls-1" points="160.37 18.32 160.37 33.5 189.8 33.5 189.8 46.07 160.37 46.07 160.37 80.61 144.9 80.61 144.9 5.76 190.88 5.76 190.88 18.32 160.37 18.32"/>
        <path class="cls-1" d="M241.5,49.26c5.16-1.23,9.45-3.59,12.75-7.03,3.75-3.89,5.66-8.63,5.66-14.04,0-6.95-3.03-12.6-9-16.82-5.31-3.73-13.95-5.61-25.72-5.61h-16.6v74.86h15.47v-29.71h.72l25.02,29.71h19.16l-27.46-31.35ZM224.06,39.1v-20.78h3.57c11.54,0,17.15,3.28,17.15,10.02,0,7.23-5.78,10.76-17.66,10.76h-3.05Z"/>
        <path class="cls-1" d="M317.6,0l-45.29,80.61h16.82l9.75-17.62h36.15l9.2,17.62h17.03L317.6,0ZM305.66,50.43l11.68-21.19,11.15,21.19h-22.83Z"/>
        <path class="cls-1" d="M380.98,43.42c0,7.23,2.99,13.44,8.89,18.42,5.96,5.04,13.4,7.6,22.07,7.6,4.51,0,8.36-.61,11.45-1.82,1.78-.61,3.63-1.43,5.51-2.46,1.89-1.05,3.93-2.32,6.05-3.79l1.76-1.25v16.09l-.64.31c-7.68,3.61-15.86,5.43-24.3,5.43-12.73,0-23.75-3.75-32.75-11.13-9.06-7.5-13.65-16.68-13.65-27.29,0-9.53,3.85-18.11,11.41-25.53,9.24-9.06,21.35-13.65,36-13.65,7.99,0,15.84,1.84,23.28,5.43l.64.31v15.84l-1.76-1.23c-7.4-5.14-15.16-7.75-23.05-7.75-8.69,0-16.09,2.62-22.01,7.77-5.92,5.08-8.91,11.37-8.91,18.71Z"/>
        <polygon class="cls-1" points="502.3 5.76 502.3 18.32 482.21 18.32 482.21 80.61 466.74 80.61 466.74 18.32 446.62 18.32 446.62 5.76 502.3 5.76"/>
        <rect class="cls-1" x="516.48" y="5.76" width="15.47" height="74.86"/>
        <polygon class="cls-1" points="626 5.76 584.86 87.48 544.67 5.76 561.64 5.76 585.16 54.63 609.02 5.76 626 5.76"/>
        <polygon class="cls-1" points="654.06 18.32 654.06 33.5 688.14 33.5 688.14 46.07 654.06 46.07 654.06 68.07 689.16 68.07 689.16 80.61 638.59 80.61 638.59 5.76 689.16 5.76 689.16 18.32 654.06 18.32"/>
      </g>
      <g>
        <path class="cls-1" d="M581,92.56H2.05c-1.13,0-2.05-.92-2.05-2.05s.92-2.05,2.05-2.05h576.93l2.03,4.1Z"/>
        <path class="cls-1" d="M689.16,90.51c0,1.13-.92,2.05-2.05,2.05h-98.59l2.05-4.1h96.54c1.13,0,2.05.9,2.05,2.05Z"/>
      </g>
    </g>
  </g>
</svg>